<svg width="200" height="400" viewBox="0 900 2214 4000"  fill="none" xmlns="http://www.w3.org/2000/svg">
<path d="M40 42C40 40.8955 40.8954 40 42 40H2172C2173.1 40 2174 40.8954 2174 42V2172C2174 2173.1 2173.1 2174 2172 2174H42C40.8955 2174 40 2173.1 40 2172V42Z" fill="white"/>
<rect x="789.928" y="935.387" width="729.294" height="224.866" rx="100" fill="#F65151"/>
<path d="M1386.3 1144.87L1383.24 1277.16L1253.99 1145.9L1386.3 1144.87Z" fill="#F65151"/>
<circle cx="966.176" cy="1044.78" r="24.3098" fill="white"/>
<circle cx="1154.58" cy="1044.78" r="24.3098" fill="white"/>
<circle cx="1342.98" cy="1044.78" r="24.3098" fill="white"/>
<path fill-rule="evenodd" clip-rule="evenodd" d="M849.895 1190.64L1230.74 1190.64H1245.74V1175.64V920V905H1230.74H849.795C849.706 910.097 849.631 915.094 849.566 920H1230.74V1175.64H850.148C850.076 1180.55 849.992 1185.54 849.895 1190.64Z" fill="#FFC01E"/>
<path fill-rule="evenodd" clip-rule="evenodd" d="M763.234 1104.86C762.068 1104.95 760.895 1105 759.717 1105C733.631 1105 710 1081.15 710 1048.5C710 1016.8 732.278 993.393 757.451 992.06C763.242 986.46 769.955 982.198 777.27 979.661C771.688 977.928 765.801 977 759.717 977C723.975 977 695 1009.01 695 1048.5C695 1087.99 723.975 1120 759.717 1120C768.696 1120 777.247 1117.98 785.019 1114.33C777.123 1112.99 769.746 1109.69 763.234 1104.86Z" fill="#FFC01E"/>
<path fill-rule="evenodd" clip-rule="evenodd" d="M760.504 990.335C777.1 951.529 809.998 920.571 851.199 905H867.045C858.791 910.958 851.061 917.45 843.926 924.413C813.669 939.076 789.629 963.209 776.03 992.432C773.096 990.567 770.061 989.5 767 989.5C764.991 989.5 762.806 989.792 760.504 990.335ZM867.045 1190.64H851.201C809.463 1174.87 776.245 1143.3 759.864 1103.79C760.589 1103.93 761.302 1104 762 1104C766.006 1104 770.192 1102.25 774.299 1099.33C787.529 1130.29 812.34 1155.92 843.925 1171.23C851.06 1178.19 858.79 1184.68 867.045 1190.64Z" fill="#FFC01E"/>
<path d="M42 41H2172V39H42V41ZM2173 42V2172H2175V42H2173ZM2172 2173H42V2175H2172V2173ZM41 2172V42H39V2172H41ZM42 2173C41.4477 2173 41 2172.55 41 2172H39C39 2173.66 40.3432 2175 42 2175V2173ZM2173 2172C2173 2172.55 2172.55 2173 2172 2173V2175C2173.66 2175 2175 2173.66 2175 2172H2173ZM2172 41C2172.55 41 2173 41.4477 2173 42H2175C2175 40.3431 2173.66 39 2172 39V41ZM42 39C40.3431 39 39 40.3432 39 42H41C41 41.4477 41.4477 41 42 41V39Z" fill="white" fill-opacity="0.1"/>
<rect x="40" y="8" width="38.7969" height="26" rx="2" fill="white"/>
<rect x="40.5" y="8.5" width="37.7969" height="25" rx="1.5" stroke="black" stroke-opacity="0.14902"/>
<path d="M44.9688 24V16H45.9375V23.1406H49.6563V24H44.9688ZM57.5947 20C57.5947 20.8437 57.4424 21.5729 57.1377 22.1875C56.833 22.8021 56.415 23.276 55.8838 23.6094C55.3525 23.9427 54.7458 24.1094 54.0635 24.1094C53.3812 24.1094 52.7744 23.9427 52.2432 23.6094C51.7119 23.276 51.2939 22.8021 50.9893 22.1875C50.6846 21.5729 50.5322 20.8437 50.5322 20C50.5322 19.1562 50.6846 18.4271 50.9893 17.8125C51.2939 17.1979 51.7119 16.724 52.2432 16.3906C52.7744 16.0573 53.3812 15.8906 54.0635 15.8906C54.7458 15.8906 55.3525 16.0573 55.8838 16.3906C56.415 16.724 56.833 17.1979 57.1377 17.8125C57.4424 18.4271 57.5947 19.1562 57.5947 20ZM56.6572 20C56.6572 19.3073 56.5413 18.7227 56.3096 18.2461C56.0804 17.7695 55.7692 17.4089 55.376 17.1641C54.9854 16.9193 54.5479 16.7969 54.0635 16.7969C53.5791 16.7969 53.1403 16.9193 52.7471 17.1641C52.3564 17.4089 52.0452 17.7695 51.8135 18.2461C51.5843 18.7227 51.4697 19.3073 51.4697 20C51.4697 20.6927 51.5843 21.2773 51.8135 21.7539C52.0452 22.2305 52.3564 22.5911 52.7471 22.8359C53.1403 23.0807 53.5791 23.2031 54.0635 23.2031C54.5479 23.2031 54.9854 23.0807 55.376 22.8359C55.7692 22.5911 56.0804 22.2305 56.3096 21.7539C56.5413 21.2773 56.6572 20.6927 56.6572 20ZM64.6924 18.5C64.6064 18.237 64.4932 18.0013 64.3525 17.793C64.2145 17.582 64.0492 17.4023 63.8564 17.2539C63.6663 17.1055 63.4502 16.9922 63.208 16.9141C62.9658 16.8359 62.7002 16.7969 62.4111 16.7969C61.9372 16.7969 61.5062 16.9193 61.1182 17.1641C60.7301 17.4089 60.4215 17.7695 60.1924 18.2461C59.9632 18.7227 59.8486 19.3073 59.8486 20C59.8486 20.6927 59.9645 21.2773 60.1963 21.7539C60.4281 22.2305 60.7419 22.5911 61.1377 22.8359C61.5335 23.0807 61.9788 23.2031 62.4736 23.2031C62.932 23.2031 63.3356 23.1055 63.6846 22.9102C64.0361 22.7122 64.3096 22.4336 64.5049 22.0742C64.7028 21.7122 64.8018 21.2865 64.8018 20.7969L65.0986 20.8594H62.6924V20H65.7393V20.8594C65.7393 21.5182 65.5986 22.0911 65.3174 22.5781C65.0387 23.0651 64.6533 23.4427 64.1611 23.7109C63.6715 23.9766 63.109 24.1094 62.4736 24.1094C61.7653 24.1094 61.1429 23.9427 60.6064 23.6094C60.0726 23.276 59.6559 22.8021 59.3564 22.1875C59.0596 21.5729 58.9111 20.8437 58.9111 20C58.9111 19.3672 58.9958 18.7982 59.165 18.293C59.3369 17.7852 59.5791 17.3529 59.8916 16.9961C60.2041 16.6393 60.5739 16.3659 61.001 16.1758C61.4281 15.9857 61.8981 15.8906 62.4111 15.8906C62.833 15.8906 63.2262 15.9544 63.5908 16.082C63.958 16.207 64.2848 16.3854 64.5713 16.6172C64.8604 16.8464 65.1012 17.1211 65.2939 17.4414C65.4867 17.7591 65.6195 18.112 65.6924 18.5H64.6924ZM74.1484 20C74.1484 20.8437 73.9961 21.5729 73.6914 22.1875C73.3867 22.8021 72.9688 23.276 72.4375 23.6094C71.9063 23.9427 71.2995 24.1094 70.6172 24.1094C69.9349 24.1094 69.3281 23.9427 68.7969 23.6094C68.2656 23.276 67.8477 22.8021 67.543 22.1875C67.2383 21.5729 67.0859 20.8437 67.0859 20C67.0859 19.1562 67.2383 18.4271 67.543 17.8125C67.8477 17.1979 68.2656 16.724 68.7969 16.3906C69.3281 16.0573 69.9349 15.8906 70.6172 15.8906C71.2995 15.8906 71.9063 16.0573 72.4375 16.3906C72.9688 16.724 73.3867 17.1979 73.6914 17.8125C73.9961 18.4271 74.1484 19.1562 74.1484 20ZM73.2109 20C73.2109 19.3073 73.0951 18.7227 72.8633 18.2461C72.6341 17.7695 72.3229 17.4089 71.9297 17.1641C71.5391 16.9193 71.1016 16.7969 70.6172 16.7969C70.1328 16.7969 69.694 16.9193 69.3008 17.1641C68.9102 17.4089 68.599 17.7695 68.3672 18.2461C68.138 18.7227 68.0234 19.3073 68.0234 20C68.0234 20.6927 68.138 21.2773 68.3672 21.7539C68.599 22.2305 68.9102 22.5911 69.3008 22.8359C69.694 23.0807 70.1328 23.2031 70.6172 23.2031C71.1016 23.2031 71.5391 23.0807 71.9297 22.8359C72.3229 22.5911 72.6341 22.2305 72.8633 21.7539C73.0951 21.2773 73.2109 20.6927 73.2109 20Z" fill="black"/>
</svg>
