<svg width="750" height="293" viewBox="0 0 775 293" fill="none" xmlns="http://www.w3.org/2000/svg">
<path d="M818.447 -152.562C922.326 -142.034 1007.71 -94.9865 1058.22 -38.7275C1109.45 17.5315 1125.82 82.3445 1057.51 120.837C989.207 159.001 834.812 170.516 722.395 198.481C609.978 226.446 538.828 270.861 443.487 285.995C348.146 301.458 228.614 287.64 168.136 252.108C106.947 216.247 104.813 158.672 72.0838 106.69C39.3548 55.0375 -23.9687 8.97748 9.47179 -18.0005C42.2008 -44.6495 171.694 -52.2165 264.189 -64.7185C356.684 -77.2205 412.181 -94.3285 501.83 -115.714C590.767 -137.428 713.857 -163.09 818.447 -152.562Z" fill="#FF0066"/>
</svg>
