<svg width="932" height="210" viewBox="0 -20 932 202" fill="none" xmlns="http://www.w3.org/2000/svg">
<path d="M647.27 3.284C751.148 13.812 836.529 60.859 887.045 117.118C938.273 173.377 954.637 238.19 886.333 276.683C818.029 314.847 663.634 326.362 551.217 354.327C438.8 382.292 367.65 426.707 272.309 441.841C176.968 457.304 57.4361 443.486 -3.04143 407.954C-64.2304 372.093 -66.3649 314.518 -99.0939 262.536C-131.823 210.883 -195.146 164.823 -161.706 137.845C-128.977 111.196 0.516068 103.629 93.0111 91.127C185.506 78.625 241.003 61.517 330.652 40.132C419.59 18.418 542.679 -7.244 647.27 3.284Z" fill="#FF0066"/>
</svg>
